<svg viewBox="0 0 1729 1729" fill="none" xmlns="http://www.w3.org/2000/svg">
<mask id="mask0_2_2" style="mask-type:alpha" maskUnits="userSpaceOnUse" x="204" y="152" width="1320" height="1320">
<circle cx="864" cy="812" r="660" fill="#D9D9D9"/>
</mask>
<g mask="url(#mask0_2_2)">
<path d="M865.31 1708.02C581.27 1708.02 297.22 1707.96 13.18 1708.26C3.27 1708.27 0 1707.31 0 1695.89C0.38 1128.32 0.36 560.75 0.1 -6.82C0.09 -16.73 1.04 -20 12.46 -20C579.99 -19.62 1147.52 -19.64 1715.05 -19.9C1724.95 -19.9 1728.24 -18.96 1728.23 -7.54C1727.85 560.03 1727.84 1127.6 1728.26 1695.17C1728.26 1707.53 1724.49 1708.27 1714.1 1708.26C1431.17 1707.95 1148.23 1708.01 865.3 1708.01L865.31 1708.02ZM436.14 779.59C438.51 782.76 440.89 785.94 443.26 789.11L443.23 789.07C447.57 795.83 451.91 802.6 456.25 809.36C480.26 843.45 501.54 880.01 529.29 910.72C546.21 929.45 554.9 957.48 582.74 965.79C584.66 977.68 591.22 985.53 602.88 988.96C603.15 989.7 603.27 990.46 603.25 991.24C608.42 1011.56 626.21 1021.72 639.13 1035.8C670.69 1078.33 701.47 1121.47 734.12 1163.15C753.09 1187.36 775.06 1209.22 795.67 1232.13C808.34 1251.87 821.27 1271.46 833.61 1291.4C854.86 1325.72 877.73 1324.69 902.34 1295.2C907.12 1298.78 911.9 1302.36 916.68 1305.94C919.61 1300.29 923.38 1294.91 925.27 1288.93C927.7 1281.24 929.24 1273.13 930.09 1265.09C932.44 1242.72 945.56 1249.45 958.14 1254.24C958.33 1210.16 1023.13 1248.14 1022.76 1203.35C1030.18 1205.76 1036.76 1204.65 1037.67 1195.98C1038.18 1191.11 1035.15 1185.87 1033.71 1180.8C1028.53 1182.84 1023.33 1184.85 1018.16 1186.92C1007.89 1191.04 997.63 1195.2 987.36 1199.35C997.3 1167.98 1024.64 1149.1 1042.4 1123.34C1042.73 1122.86 1048.18 1125.06 1050.46 1126.94C1055.26 1130.91 1052.44 1146.68 1063.96 1138.2C1067.64 1135.49 1063.36 1121.51 1062.11 1112.77C1061.57 1109.01 1059.5 1105.48 1058.12 1101.84C1062.45 1101.19 1066.85 1099.67 1071.1 1100.03C1088.91 1101.55 1107.33 1098.29 1118.15 1085.59C1127.19 1074.98 1123.42 1060.54 1112.25 1047.11C1102.16 1034.97 1113.32 1021.05 1126.22 1018.74C1137.63 1016.69 1151.6 1027.16 1162.52 1024.43C1186.36 1018.46 1167.23 1005.2 1164.63 994.8C1164.52 994.37 1166.13 992.97 1167 992.92C1211.2 990.23 1202.8 965.29 1191.03 937.91C1189.96 935.42 1195.37 928.85 1199.12 925.9C1204.49 921.68 1206.93 924.46 1209.15 930.91C1210.64 935.25 1216.95 937.93 1221.1 941.35C1223 937.28 1227.1 932.84 1226.48 929.2C1218.71 883.77 1239.04 859.59 1283.16 853.96C1296.39 852.27 1300.19 846.67 1303.63 833.76C1305.77 825.74 1293.93 810.03 1312.47 808.22C1319.06 807.58 1325.9 809.5 1332.62 810.25C1331 801.77 1329.37 793.29 1327.75 784.81C1327.04 781.08 1326.34 777.34 1325.63 773.61C1361.75 777.89 1345.39 743 1358.17 729.77C1362.32 725.48 1365.06 719.82 1368.44 714.79C1368.39 720.79 1369.93 727.38 1367.94 732.64C1364.68 741.27 1365.07 748.18 1373.13 752.59C1375.53 753.9 1383.49 750.7 1383.43 750.06C1381.01 723.3 1397.06 691.32 1365.29 672.59C1354.29 666.1 1354.11 658.27 1350.98 648.09C1341.25 616.49 1287.4 612.91 1298.22 567C1296.03 566.74 1293.79 566.08 1291.65 566.29C1269.54 568.45 1251.97 558.35 1235.75 545.23C1231.02 541.4 1227.61 535.93 1223.59 531.21C1229.56 530.6 1235.66 530.56 1241.47 529.23C1247.56 527.84 1253.65 525.72 1259.12 522.77C1260.53 522.01 1260.38 514.46 1259.65 514.24C1253.68 512.41 1247.44 511.23 1241.21 510.52C1235.92 509.92 1230.51 509.86 1225.18 510.14C1202.75 511.33 1189.74 469.17 1161.72 496.38C1157.34 500.74 1152.96 505.09 1148.59 509.45C1143.99 515.11 1139.38 520.77 1134.78 526.44C1123.4 520.58 1107.79 520.02 1105.37 502.94C1102.36 487.63 1130.11 486.97 1121.54 469.01C1121.75 468.09 1121.69 467.2 1121.34 466.32C1111.54 465.34 1101.75 464.37 1091.95 463.39C1041.97 463.43 991.99 463.47 942.01 463.5C845.6 463.53 749.19 463.56 652.78 463.59C640.49 464.05 628.21 464.5 615.92 464.96C620.98 472.64 625.67 480.6 631.17 487.96C654.16 518.75 677.39 549.37 700.54 580.04C700.25 580.8 700.12 581.58 700.17 582.39C694.44 578.26 688.5 574.38 683.03 569.91C677.9 565.72 673.28 560.91 668.44 556.38C667.06 558.74 664.77 561 664.47 563.49C663.27 573.71 670.43 574.28 678 575.75C680.15 576.17 682.21 582.91 682.19 586.75C682.17 589.7 678.23 595.41 677.05 595.16C655.61 590.54 651.33 568.51 638.21 555.27C631.85 548.85 624.69 538.26 631.99 528.48C635.67 523.54 645.08 521.35 637.16 514.34C634.99 512.42 626.47 517.61 620.89 519.61C614.49 521.91 608.11 524.29 601.73 526.63C587.68 523.01 590.22 486.61 568.79 504.21C517.09 546.67 468.77 593.25 419.14 638.22C416.38 640.72 414.09 643.73 411.58 646.5C415.03 646.84 418.47 647.45 421.93 647.49C460.71 647.98 499.49 648.38 538.27 648.8C540.89 649.33 543.52 649.87 546.14 650.4C573.75 668.07 604.32 656.17 633.42 658.91C642.14 659.73 656.44 649 657.53 664.42C658.46 677.62 642.81 670.2 634.78 672.81C612.25 680.11 582.63 663.06 567.54 697.52C555.01 726.14 585.8 734.87 592.74 740.96C628.64 772.47 631.4 772.19 599.47 799.2C593.29 790.25 587.11 781.31 580.93 772.36C577.2 767.77 573.47 763.18 569.74 758.59C563.04 746.54 556.33 734.48 549.63 722.43C544.84 714.55 540.05 706.67 535.26 698.79C493.53 697.75 451.81 696.46 410.07 695.86C399.45 695.71 388.8 697.73 378.17 698.76C383.17 707.79 388.17 716.81 393.17 725.84C389.29 742.99 401.32 747.82 413.71 752.36C418.03 757.86 422.35 763.36 426.67 768.86C425.69 776.02 428.81 779.55 436.03 779.48L436.12 779.55L436.14 779.59Z" fill="#000026"/>
<path d="M601.78 526.67C608.17 524.33 614.54 521.95 620.94 519.65C626.52 517.65 635.04 512.45 637.21 514.38C645.14 521.39 635.73 523.58 632.04 528.52C624.75 538.31 631.9 548.9 638.26 555.31C651.39 568.55 655.66 590.58 677.1 595.2C678.28 595.45 682.22 589.74 682.24 586.79C682.26 582.96 680.2 576.21 678.05 575.79C670.49 574.31 663.32 573.75 664.52 563.53C664.81 561.04 667.11 558.78 668.49 556.42C673.33 560.96 677.95 565.76 683.08 569.95C688.54 574.41 694.48 578.29 700.22 582.43C716.93 586.94 718.04 636.92 749.23 599.25C752.34 597.05 755.45 594.85 758.56 592.65C772 582.38 785.43 572.11 798.87 561.84C796.62 584.53 758.81 594.06 775.64 624.2C776.21 625.23 771.16 629.4 768.73 632.1C767.54 629.04 766.97 625.48 765.01 623.04C761.66 618.88 757.43 615.42 753.56 611.67C751.43 615.44 750.02 619.98 747 622.8C742.73 626.79 737.6 631.62 732.28 632.42C709.16 635.91 694.67 648.27 687.3 670.33C686.36 673.15 679.99 676.01 676.43 675.68C671.23 675.2 665.85 666.84 661.85 676.08C661.37 677.19 671.1 685.89 675.61 685.5C708.1 682.67 712.75 703 713.16 727.94C713.21 730.73 715.47 733.48 716.71 736.24C718.38 734.31 721.42 732.44 721.49 730.45C721.99 716.57 722.45 702.63 721.7 688.77C721.4 683.12 718.06 677.63 716.1 672.07C719.78 674.35 725.01 675.77 726.83 679.08C730.92 686.53 748.32 687.35 738.72 701.64C735.98 705.72 732.19 709.08 729.38 713.12C722.38 723.2 735.33 724.61 736.29 723.28C740.76 717.08 743.09 709.34 746.19 702.15C747.32 703.39 748.45 704.64 749.57 705.88C763.17 775.7 776.77 845.52 790.37 915.35C791.16 918.79 791.96 922.23 792.75 925.68C794.91 936.79 797.07 947.9 799.23 959.02C809.12 1005.67 819 1052.31 828.89 1098.96C841.37 1143.1 853.85 1187.25 866.33 1231.39C866.85 1232.8 867.37 1234.2 867.89 1235.61C869.27 1234.24 871.45 1233.09 871.93 1231.45C884.69 1187.68 900.02 1144.45 909.37 1099.95C937.11 967.93 962.47 835.42 988.77 703.1C988.7 700.8 988.63 698.51 988.56 696.21C990.16 703.86 1026.32 697.94 997.06 717.85C995.68 718.79 995.42 721.39 994.64 723.21C1006.16 725.21 1016.27 729.2 1020.52 741.49C1021.95 740.11 1024.64 738.7 1024.62 737.34C1024.28 718.21 1035.37 694.22 1003.77 688.05C996.55 686.64 998.63 681.97 999.4 675.62C1000.67 665.2 991.19 668.06 987.83 672.25C966.24 699.2 933.49 699.76 909.83 689.36C881.51 676.92 855.82 699.48 829.58 685.14C823.24 681.68 805.15 702.62 801.1 686.84C793.13 655.73 828.49 682 836.18 665.38C839.35 658.53 848.89 657.53 853.29 669.1C857.27 679.57 867.34 676.66 874.93 674.85C878.04 674.11 881.98 667.46 881.73 663.75C880.97 652.42 871.26 656.76 864.87 656.16C837.12 653.54 809.33 651.29 781.55 648.9C814.01 648.08 846.47 647.26 878.93 646.44C903.42 646.36 927.9 646.28 952.39 646.2C954.56 646.2 956.73 646.2 958.9 646.19C960.93 646.18 962.95 646.17 964.98 646.15C958.83 640.22 952.69 634.29 946.54 628.36L946.73 628.66C943.08 625.53 939.44 622.4 935.79 619.28C934.21 618.17 932.64 617.07 931.06 615.96C929.29 613.8 927.53 611.64 925.77 609.48C939.73 591.83 904.25 590.84 914.2 569.23C926.5 542.5 884.74 544.31 879.5 523.35C879.3 522.56 869.69 522.51 865.71 524.54C844.11 535.62 822.9 547.47 801.56 559.05C822.9 540.38 844.24 521.7 865.59 503.03C867.99 502.93 870.38 502.82 872.78 502.72C882.55 511.75 892.33 520.78 902.1 529.8C917.57 542.03 933.03 554.26 948.5 566.49C976.36 574.11 986.06 647.94 1032.06 589.4C1049.6 590.54 1047 576.8 1049.02 566.46L1049.13 566.35C1060 566.07 1065.51 560.53 1065.54 549.61C1078.84 534.05 1092.13 518.5 1105.43 502.94C1107.85 520.01 1123.46 520.58 1134.84 526.44L1135.74 526.19L1135.03 526.96L1135.49 527.9C1132.03 532.8 1128.57 537.7 1125.12 542.6L1125.19 542.57C1121.2 547.25 1117.22 551.93 1113.23 556.6L1112.29 557.18L1112.35 558.28C1109.21 562.05 1106.06 565.82 1102.92 569.59C1102.05 570.09 1101.82 570.79 1102.23 571.71C1095.82 579.74 1089.41 587.76 1083.01 595.79C1082.1 596.52 1081.8 597.44 1082.11 598.57C1079.72 602.57 1077.33 606.56 1074.94 610.56C1074.27 611.13 1073.6 611.7 1072.93 612.26C1068.81 616.91 1064.68 621.55 1060.56 626.2C1056.9 631.66 1053.24 637.13 1049.58 642.59C1046.85 646.14 1042.36 649.49 1052.06 649.46C1138.89 649.13 1225.72 649.19 1312.55 648.86C1317.64 648.84 1329.15 648.38 1319.75 639.63C1292.44 614.2 1263.66 590.36 1235.46 565.89L1235.6 565.92C1232.22 562.58 1228.84 559.25 1225.46 555.91C1216.68 548.14 1207.9 540.38 1199.11 532.61C1186.89 521.56 1174.67 510.52 1162.45 499.47C1162.35 498.42 1162.13 497.39 1161.8 496.39C1189.81 469.18 1202.83 511.34 1225.26 510.15C1230.59 509.87 1236 509.92 1241.29 510.53C1247.52 511.24 1253.76 512.41 1259.73 514.25C1260.46 514.47 1260.61 522.02 1259.2 522.78C1253.73 525.73 1247.64 527.85 1241.55 529.24C1235.74 530.57 1229.64 530.61 1223.67 531.22C1227.69 535.94 1231.09 541.41 1235.83 545.24C1252.05 558.36 1269.62 568.46 1291.73 566.3C1293.88 566.09 1296.11 566.75 1298.3 567.01C1287.48 612.92 1341.33 616.5 1351.06 648.1C1354.19 658.27 1354.37 666.11 1365.37 672.6C1397.13 691.33 1381.09 723.31 1383.51 750.07C1383.57 750.71 1375.61 753.92 1373.21 752.6C1365.15 748.19 1364.76 741.29 1368.02 732.65C1370.01 727.39 1368.47 720.79 1368.52 714.8C1365.14 719.83 1362.4 725.49 1358.25 729.78C1345.47 743.01 1361.82 777.89 1325.71 773.62C1326.41 777.35 1327.11 781.09 1327.83 784.82C1329.45 793.3 1331.08 801.78 1332.7 810.26C1325.98 809.51 1319.14 807.59 1312.55 808.23C1294.01 810.04 1305.85 825.75 1303.71 833.77C1300.27 846.67 1296.47 852.28 1283.24 853.97C1239.12 859.6 1218.79 883.78 1226.56 929.21C1227.18 932.85 1223.08 937.29 1221.18 941.36C1217.03 937.94 1210.72 935.26 1209.23 930.92C1207.01 924.47 1204.58 921.69 1199.2 925.91C1195.44 928.86 1190.04 935.43 1191.11 937.92C1202.88 965.3 1211.27 990.24 1167.08 992.93C1166.22 992.98 1164.61 994.38 1164.71 994.81C1167.31 1005.21 1186.43 1018.47 1162.6 1024.44C1151.68 1027.17 1137.71 1016.7 1126.3 1018.75C1113.4 1021.06 1102.23 1034.99 1112.33 1047.12C1123.5 1060.56 1127.27 1074.99 1118.23 1085.6C1107.41 1098.3 1088.99 1101.56 1071.18 1100.04C1066.94 1099.68 1062.53 1101.2 1058.2 1101.85C1059.58 1105.49 1061.65 1109.02 1062.19 1112.78C1063.43 1121.52 1067.72 1135.5 1064.04 1138.21C1052.52 1146.69 1055.34 1130.92 1050.54 1126.95C1048.26 1125.06 1042.81 1122.86 1042.48 1123.35C1024.71 1149.11 997.38 1167.99 987.44 1199.36C997.7 1195.22 1007.96 1191.06 1018.24 1186.93C1023.41 1184.86 1028.6 1182.84 1033.79 1180.81C1035.23 1185.88 1038.26 1191.12 1037.75 1195.99C1036.84 1204.66 1030.26 1205.78 1022.84 1203.36C1023.22 1248.16 958.41 1210.18 958.22 1254.25C945.64 1249.46 932.51 1242.73 930.17 1265.1C929.33 1273.14 927.78 1281.24 925.35 1288.94C923.46 1294.92 919.69 1300.3 916.76 1305.95C911.98 1302.37 907.2 1298.79 902.42 1295.21C907.97 1284.11 913.51 1273.01 919.06 1261.92C923.52 1255.29 927.98 1248.65 932.44 1242.02C941.35 1230.76 950.32 1219.55 959.17 1208.24C1028.08 1120.19 1096.55 1031.78 1165.99 944.15C1227.56 866.45 1290.3 789.68 1352.23 712.26C1356.63 706.76 1365.22 697.61 1348.15 696.5C1299.47 697.51 1250.79 698.53 1202.12 699.54C1199.78 702.63 1197.44 705.71 1195.1 708.8C1192.07 713.47 1189.04 718.14 1186 722.81C1184.66 724.93 1183.32 727.04 1181.99 729.16C1179.95 734.7 1177.91 740.24 1175.87 745.78C1172.8 749.37 1169.73 752.96 1166.66 756.55C1166.13 757.31 1166.03 758.09 1166.37 758.88C1163.74 762.33 1161.11 765.77 1158.49 769.22L1158.58 769.05L1148.5 785.81L1148.59 785.67C1145.32 790.16 1142.05 794.66 1138.77 799.15C1132.93 808.87 1127.09 818.6 1121.24 828.32C1117.73 834.14 1114.22 839.96 1110.71 845.79C1110.19 846.99 1109.67 848.18 1109.16 849.38L1101.93 862.38L1102.01 862.27C1097.44 870.32 1092.87 878.36 1088.3 886.41C1086.21 889.21 1084.12 892.01 1082.03 894.81C1078.68 900.65 1075.33 906.5 1071.98 912.34L1072.07 912.21C1068.42 917.82 1064.78 923.43 1061.13 929.03C1060.48 931.25 1059.83 933.47 1059.17 935.68C1055.67 941.21 1052.17 946.74 1048.67 952.27L1048.75 952.13C1045.39 957.73 1042.02 963.32 1038.66 968.92L1038.79 968.77C1034.64 975.47 1030.49 982.17 1026.34 988.88C1021.55 997.59 1016.76 1006.3 1011.97 1015.01C1002.11 1031.88 992.26 1048.75 982.4 1065.62C961.29 1114.4 940.17 1163.18 919.06 1211.96C905.73 1241.93 892.41 1271.89 879.08 1301.86C874.78 1302.05 870.72 1313.07 866.32 1302.77C848.21 1260.39 833.88 1215.92 811.39 1176.03C795.93 1148.6 799.19 1111.67 768.7 1092.41C766.81 1088.95 764.91 1085.49 763.02 1082.03C759.73 1076.61 756.44 1071.19 753.15 1065.77C739.04 1041.15 724.94 1016.54 710.83 991.92C698.25 969.64 685.67 947.36 673.1 925.08C671.81 923.1 670.53 921.12 669.24 919.14C667.23 915.57 665.21 912 663.2 908.42C657.51 897.55 651.82 886.68 646.13 875.8C646.43 874.05 646.74 872.31 647.04 870.56C645.66 871.13 644.28 871.7 642.89 872.27C638.5 866.58 634.11 860.89 629.72 855.2C628.75 852.01 627.78 848.81 626.81 845.62C648.01 844.39 638.98 828.12 638.41 818.48C638.12 813.43 628.57 808.92 623.2 804.16C624.92 811.8 627.4 819.36 628.12 827.09C628.68 833.06 627.04 839.24 626.38 845.33C620.8 836.62 615.22 827.9 609.64 819.19C606.41 814.03 603.18 808.88 599.95 803.72C599.82 802.22 599.68 800.72 599.55 799.23C631.48 772.23 628.73 772.51 592.82 740.99C585.88 734.9 555.09 726.16 567.62 697.55C582.71 663.09 612.33 680.14 634.86 672.84C642.89 670.24 658.55 677.65 657.61 664.45C656.52 649.03 642.23 659.77 633.5 658.94C604.4 656.2 573.84 668.11 546.22 650.43C589.75 650.23 633.28 650.13 676.81 649.77C683.94 649.71 693.61 652.43 692.64 639.45C676.96 620.65 661.28 601.86 645.6 583.06C637.18 572.88 628.76 562.7 620.35 552.52C616.03 546.99 611.71 541.46 607.39 535.93C605.53 532.83 603.67 529.74 601.81 526.64L601.78 526.67ZM613.03 735.87L612.99 735.8C612.74 750.42 622.27 758.53 632.98 765.86C635.26 770.15 637.55 774.44 639.83 778.74C643.85 796.21 652.66 810.77 666.33 822.38L666.3 822.34C668.49 825.71 670.68 829.08 672.87 832.44C679.28 841.4 685.69 850.37 692.11 859.33C694.5 863.73 696.9 868.14 699.29 872.54L699.27 872.51C710.36 891.42 721.23 910.46 732.67 929.16C736.99 936.22 742.63 942.47 747.66 949.09C746.04 940.16 744.42 931.24 742.79 922.31C735.11 888.8 727.43 855.29 719.75 821.78C719.98 820.88 719.88 820.03 719.43 819.21C718.4 814.56 717.37 809.92 716.34 805.27C716.51 804.33 716.39 803.42 715.99 802.56C714.99 797.94 713.98 793.31 712.98 788.69C708.59 768.69 704.21 748.68 699.82 728.68C697.33 717.86 694.85 707.05 692.36 696.23C660.32 701.85 628.6 670.64 596.39 695.41C595.2 696.54 594.01 697.68 592.82 698.82C593.69 700.35 594.56 701.88 595.43 703.41C597.88 706.78 600.33 710.14 602.77 713.51C603.97 717.57 605.17 721.62 606.36 725.68C608.58 729.08 610.8 732.48 613.02 735.88L613.03 735.87ZM1141.88 702.65C1136.36 693.62 1052.69 693.55 1042.91 702.57C1041.43 707.97 1039.95 713.37 1038.48 718.77C1026.33 774.45 1014.18 830.13 1002.04 885.81C985.95 905.64 982.27 928.62 985.28 953.16C985.54 955.31 987.63 957.23 988.86 959.26C989.97 956.9 991.07 954.54 992.18 952.18C1022.17 900.09 1052.15 848.01 1082.14 795.92C1097.64 771.49 1113.13 747.06 1128.63 722.63C1130.76 719.17 1132.89 715.71 1135.02 712.25C1136.05 711.18 1137.09 710.11 1138.12 709.04C1139.37 706.91 1140.63 704.78 1141.88 702.65ZM1347.97 683.62C1337.31 647.78 1308.63 664.63 1288 659.79C1284.25 658.91 1279.39 662.77 1275.04 664.45C1296.29 672.65 1317.45 681.12 1338.93 688.67C1341.29 689.5 1345.48 685.09 1347.96 683.62H1347.97ZM742.89 756.4C733.74 761.48 721.27 766.74 723.37 779.53C726.85 800.73 727.71 823.24 741.99 841.38C742.71 839.32 743.67 837.3 744.1 835.18C748.49 813.83 722.35 789.1 751.7 769.87C754.96 767.73 754.44 756.45 742.89 756.39V756.4ZM724.81 942.47C722.91 938.98 720.67 934.85 718.42 930.72C713.4 938.12 703.51 946.3 704.53 952.75C705.98 961.93 719.48 977.8 720.86 977.09C738.21 968.28 717.25 955.45 724.8 942.47H724.81ZM682.71 876.02C683.91 867.07 681.14 857.69 669.7 854.62C667.99 854.16 660.13 865.09 661.34 867.23C666.44 876.25 657.25 891.78 671.06 895C682.91 897.76 682.64 886.47 682.7 876.03L682.71 876.02ZM686.22 897.75C683.49 907.17 680.75 911.58 681.46 915.33C682.65 921.58 686.06 927.42 688.53 933.43C690.99 927 694.6 920.72 695.43 914.09C695.86 910.62 691.41 906.55 686.21 897.76L686.22 897.75ZM712.83 618.46C710.25 598.95 694.42 623.12 691.76 608.89C689.97 610.55 688.19 612.21 686.4 613.88C691.25 617.58 695.65 622.8 701.11 624.39C704.31 625.32 709.19 620.45 712.83 618.46Z" fill="#020128"/>
<path d="M601.78 526.67C603.64 529.77 605.5 532.86 607.36 535.96C602.35 547.06 597.33 558.15 592.32 569.25C590.52 571.65 588.72 574.05 586.92 576.45C572.31 599.72 557.7 622.99 543.1 646.26C541.51 647.13 539.92 647.99 538.33 648.86C499.55 648.44 460.77 648.03 421.99 647.55C418.54 647.51 415.09 646.9 411.64 646.56C414.15 643.79 416.44 640.77 419.2 638.28C468.83 593.31 517.15 546.73 568.85 504.27C590.27 486.67 587.74 523.07 601.79 526.69L601.78 526.67Z" fill="#FAFAFB"/>
<path d="M603.25 991.25C603.27 990.47 603.15 989.71 602.88 988.97C598.22 981.26 593.55 973.55 588.89 965.84C622.52 975.03 625.48 1014.4 652.31 1030.27C655.66 1032.25 657.62 1042.2 662.77 1033.86C665.92 1028.75 667.51 1016.35 665.58 1015.36C620.99 992.25 630.04 934.42 594.22 906.06C588.76 901.74 590.64 898.05 596.27 895.47C602.9 902.18 609.53 908.88 616.17 915.59C634.05 935.57 651.94 955.55 669.82 975.53C695.05 1005.53 720.28 1035.54 745.5 1065.54C737.26 1077.97 759.8 1094.12 740.71 1105.24C742.32 1107.25 743.72 1110.73 745.58 1110.99C750.32 1111.67 757.15 1108.75 759.83 1111.08C777.18 1126.19 747.55 1137.04 755.43 1151.81C736.55 1157.31 738.73 1139.22 731.74 1131.06C714.67 1111.12 696.87 1091.79 679.36 1072.22C665.98 1057.8 652.59 1043.38 639.21 1028.96C627.22 1016.38 615.23 1003.81 603.24 991.23L603.25 991.25ZM637.64 950.31C634.32 948.74 632.56 947.57 630.64 947.19C630.03 947.07 629 949.02 628.17 950.03C629.52 950.72 630.82 951.79 632.24 951.98C633.42 952.14 634.74 951.27 637.63 950.31H637.64Z" fill="#5D1B9C"/>
<path d="M700.59 580.07C677.45 549.39 654.21 518.78 631.22 487.99C625.72 480.63 621.03 472.67 615.97 464.99C628.26 464.53 640.54 464.08 652.82 463.62C657.09 465.67 661.37 467.71 665.65 469.76C692.41 478.67 719.17 487.57 745.93 496.48C750.22 497.9 754.5 499.31 758.79 500.73L782.42 509.96L782.33 509.86C787.98 512.03 793.64 514.21 799.29 516.38L811.48 525.48C800.72 531.27 789.96 537.05 779.19 542.84C773.02 546.07 766.86 549.29 760.69 552.52C740.65 561.7 720.62 570.89 700.58 580.07H700.59Z" fill="#FBFBFA"/>
<path d="M599.49 799.25C599.62 800.75 599.76 802.25 599.89 803.75C599.67 805.61 599.44 807.47 599.22 809.33C595.93 805.69 592.85 801.83 589.3 798.46C582.53 792.02 575.5 785.86 568.58 779.58C568.82 786.04 571.12 797.26 568.96 798.2C552.01 805.55 570.57 836.67 543.25 835.74C542.05 834.58 540.86 833.42 539.66 832.26C537.22 829.11 534.77 825.96 532.33 822.81L532.46 823.02C533.67 812.9 528.89 808.69 519.07 809.45L499.17 787C497.21 755.24 540.41 757.69 542.9 729.3C544.05 729.26 545.2 729.22 546.35 729.18C554.07 740.34 561.79 751.5 569.5 762.65C573.31 765.9 577.13 769.15 580.94 772.4C587.12 781.35 593.3 790.29 599.47 799.24L599.49 799.25Z" fill="#D2A5EF"/>
<path d="M700.59 580.07C720.63 570.89 740.66 561.7 760.7 552.52C768.28 551.99 778.29 556.12 779.19 542.84C789.95 537.05 800.71 531.27 811.48 525.48C827.45 517.92 843.42 510.37 859.39 502.81C861.45 502.89 863.51 502.96 865.58 503.04C844.24 521.71 822.9 540.39 801.55 559.06C800.65 559.98 799.75 560.91 798.85 561.83C785.41 572.1 771.98 582.37 758.55 592.64C755.44 594.84 752.33 597.04 749.22 599.24C718.04 636.91 716.93 586.93 700.21 582.42C700.17 581.61 700.29 580.82 700.59 580.06V580.07Z" fill="#6929AA"/>
<path d="M918.99 1261.92C913.44 1273.02 907.9 1284.12 902.35 1295.21C877.74 1324.71 854.87 1325.73 833.62 1291.41C821.27 1271.47 808.34 1251.89 795.68 1232.14C796.6 1232.08 797.53 1232.04 798.45 1232.03C808.5 1244.37 818.54 1256.71 828.59 1269.05L858.88 1306.78C853.85 1293.55 849.08 1280.21 843.68 1267.13C840.57 1259.58 836.44 1252.45 832.77 1245.13V1245.11C830.59 1240.6 828.41 1236.1 826.24 1231.59C807.04 1185.19 787.84 1138.79 768.64 1092.4C799.14 1111.66 795.88 1148.59 811.33 1176.02C833.81 1215.91 848.14 1260.38 866.26 1302.76C870.66 1313.06 874.73 1302.04 879.02 1301.85C892.35 1288.54 905.67 1275.22 919 1261.91L918.99 1261.92Z" fill="#0B0336"/>
<path d="M426.69 768.9C422.37 763.4 418.05 757.9 413.73 752.4C406.88 743.56 400.04 734.72 393.19 725.88C388.19 716.85 383.19 707.83 378.19 698.8C388.82 697.78 399.47 695.75 410.09 695.9C451.83 696.5 493.55 697.79 535.29 698.84C488.09 698.82 440.88 698.76 393.68 699.03C392.97 699.03 382.19 693.93 389.45 703.39C399.3 710.94 409.15 718.49 419 726.04C405.33 727.33 411.12 732.99 415.11 740C433.79 772.81 468.8 794.14 479.77 832.29C476.4 829.04 473.03 825.79 469.66 822.54L462.81 813.3C461.63 811.99 460.45 810.68 459.27 809.38C453.92 802.62 448.58 795.85 443.23 789.09L443.26 789.13C440.89 785.96 438.51 782.78 436.14 779.61L436.05 779.54C432.93 776 429.81 772.46 426.69 768.92V768.9Z" fill="#632B9E"/>
<path d="M798.45 1232.04C797.53 1232.05 796.6 1232.09 795.68 1232.15C775.06 1209.23 753.09 1187.38 734.12 1163.17C701.47 1121.49 670.69 1078.35 639.13 1035.82C639.13 1035.82 640.02 1035.15 640.01 1035.15C653.05 1049.81 666.09 1064.46 679.13 1079.11L679.08 1079.01C683.53 1084.71 687.97 1090.4 692.42 1096.1C727.76 1141.42 763.11 1186.73 798.45 1232.05V1232.04Z" fill="#0E023C"/>
<path d="M469.67 822.53C473.04 825.78 476.41 829.03 479.78 832.28L479.68 832.5C497.37 853.65 515.06 874.8 532.75 895.95H532.62C540.4 906.03 548.18 916.1 555.95 926.16C556.86 927.26 557.76 928.36 558.67 929.46C562.15 933.98 565.62 938.49 569.1 943.01L572.09 946.07C575.68 951.48 579.27 956.89 582.87 962.3C582.83 963.46 582.79 964.62 582.75 965.79C554.91 957.49 546.22 929.45 529.3 910.72C501.55 880.01 480.27 843.45 456.26 809.35L457.77 809.32L459.28 809.35C460.46 810.66 461.64 811.97 462.82 813.27C465.1 816.35 467.39 819.43 469.67 822.52V822.53Z" fill="#0C0138"/>
<path d="M1121.39 466.35C1121.74 467.22 1121.81 468.12 1121.6 469.04C1102.75 494.36 1083.89 519.68 1065.04 544.99C1059.74 552.12 1054.43 559.25 1049.13 566.37L1049.02 566.48C1045.49 570.7 1041.96 574.92 1038.43 579.14C1036.37 579.24 1034.31 579.34 1032.25 579.44C1028.98 577.25 1025.7 575.06 1022.43 572.88C1055.21 551.17 1076.26 519.55 1095.48 486.38C1113.1 457.54 1077.57 482.21 1078.83 469.84C1079.93 468.84 1081.03 467.85 1082.13 466.85C1085.4 466.59 1088.66 466.32 1091.93 466.06C1101.75 466.16 1111.57 466.25 1121.4 466.35H1121.39Z" fill="#7538B3"/>
<path d="M665.66 469.75C661.38 467.7 657.11 465.66 652.83 463.61C749.24 463.58 845.65 463.55 942.06 463.52C942.06 464.29 942.04 465.06 941.99 465.83C937.76 467.21 933.53 468.6 929.29 469.98C885.84 468.89 842.39 467.79 798.95 466.7C796.81 466.67 794.68 466.65 792.54 466.62C786.99 466.55 781.45 466.49 775.9 466.42C739.15 467.52 702.4 468.63 665.66 469.73V469.75Z" fill="#E1CBF8"/>
<path d="M389.45 703.39C382.18 693.94 392.96 699.04 393.67 699.03C440.87 698.76 488.08 698.82 535.28 698.84C540.06 706.71 544.85 714.59 549.65 722.48C548.62 723.52 547.59 724.56 546.56 725.61C542.06 720.13 537.57 714.65 533.07 709.17L533.12 709.28C528.79 707.11 524.48 703.09 520.13 703.05C483.36 702.72 446.58 703.12 409.8 703.3C403.01 703.33 396.23 703.36 389.44 703.39H389.45Z" fill="#F9F0FC"/>
<path d="M1065.03 544.99C1083.88 519.67 1102.74 494.35 1121.59 469.04C1130.16 487 1102.41 487.66 1105.42 502.97C1092.12 518.53 1078.83 534.08 1065.53 549.64C1065.36 548.09 1065.2 546.54 1065.03 545V544.99Z" fill="#12023A"/>
<path d="M538.31 648.85C539.9 647.98 541.49 647.12 543.08 646.25C545.22 646.27 547.36 646.29 549.49 646.31C588.37 646.32 627.26 646.33 666.14 646.35C673.01 644.01 684.72 656.11 686.78 639.43C688.72 639.45 690.65 639.46 692.59 639.48C693.56 652.46 683.89 649.74 676.76 649.8C633.23 650.16 589.7 650.27 546.17 650.46C543.55 649.93 540.92 649.39 538.3 648.86L538.31 648.85Z" fill="#1C0D44"/>
<path d="M941.99 465.84C942.04 465.07 942.07 464.3 942.06 463.53C992.04 463.49 1042.02 463.45 1092 463.42C1092.05 464.3 1092.02 465.18 1091.92 466.06C1088.65 466.32 1085.39 466.59 1082.12 466.85C1035.41 466.51 988.7 466.18 941.99 465.85V465.84Z" fill="#BF90E8"/>
<path d="M603.25 991.25C615.24 1003.83 627.23 1016.4 639.22 1028.98C639.49 1031.03 639.75 1033.09 640.02 1035.14C640.02 1035.14 639.14 1035.81 639.13 1035.81C626.21 1021.73 608.42 1011.57 603.25 991.25Z" fill="#0E023C"/>
<path d="M546.57 725.6C547.6 724.56 548.63 723.52 549.65 722.48C556.35 734.53 563.06 746.59 569.76 758.64C569.68 759.98 569.59 761.32 569.51 762.66C561.79 751.5 554.07 740.34 546.35 729.19C546.42 728 546.49 726.8 546.56 725.6H546.57Z" fill="#DACAED"/>
<path d="M393.19 725.88C400.04 734.72 406.88 743.56 413.73 752.4C401.34 747.85 389.31 743.03 393.19 725.88Z" fill="#11033A"/>
<path d="M582.75 965.8C582.79 964.64 582.83 963.48 582.87 962.31C583.91 962.41 584.95 962.54 585.99 962.7C586.96 963.75 587.93 964.8 588.9 965.84C593.56 973.55 598.23 981.26 602.89 988.97C591.24 985.54 584.68 977.68 582.75 965.8Z" fill="#120341"/>
<path d="M459.27 809.36L457.76 809.33L456.25 809.36C451.91 802.6 447.57 795.83 443.23 789.07C448.58 795.83 453.93 802.6 459.27 809.36Z" fill="#1D094F"/>
<path d="M1091.92 466.06C1092.02 465.18 1092.05 464.3 1092 463.42C1101.8 464.4 1111.59 465.37 1121.39 466.35C1111.57 466.25 1101.74 466.16 1091.92 466.06Z" fill="#9F6CCE"/>
<path d="M1161.78 496.41C1162.11 497.41 1162.32 498.44 1162.43 499.49C1160.01 502.9 1157.59 506.32 1155.18 509.73C1153.34 511.35 1151.5 512.97 1149.65 514.59C1149.32 512.88 1148.98 511.18 1148.65 509.47C1153.03 505.11 1157.41 500.76 1161.78 496.4V496.41Z" fill="#B4A6D8"/>
<path d="M1148.64 509.47C1148.97 511.18 1149.31 512.88 1149.64 514.58C1149.67 515.26 1149.72 515.95 1149.78 516.63C1145.1 519.82 1140.41 523.01 1135.73 526.2L1134.83 526.45C1139.43 520.79 1144.04 515.13 1148.64 509.46V509.47Z" fill="#AFA1D7"/>
<path d="M569.52 762.66C569.6 761.32 569.69 759.98 569.77 758.64C573.5 763.23 577.23 767.82 580.96 772.41C577.15 769.16 573.33 765.91 569.52 762.66Z" fill="#E6D0F5"/>
<path d="M426.69 768.9C429.81 772.44 432.93 775.98 436.05 779.52C428.83 779.59 425.7 776.06 426.69 768.9Z" fill="#1D094F"/>
<path d="M436.14 779.59C438.51 782.76 440.88 785.94 443.26 789.11C440.89 785.94 438.52 782.76 436.14 779.59Z" fill="#1D094F"/>
<path d="M918.99 1211.96C940.1 1163.18 961.22 1114.4 982.33 1065.62C997.53 1067.41 999.47 1054.13 1005.38 1045.35C1023.25 1024.37 1041.12 1003.39 1058.99 982.41C1100.06 936.93 1141.13 891.45 1182.19 845.97C1228.6 794.02 1278.31 745.81 1338.09 709.09C1340.43 707.07 1342.77 705.05 1345.11 703.03C1346.1 700.86 1347.09 698.68 1348.09 696.51C1365.16 697.62 1356.57 706.78 1352.17 712.27C1290.24 789.68 1227.5 866.46 1165.93 944.16C1096.48 1031.79 1028.02 1120.2 959.11 1208.25C950.26 1219.56 941.29 1230.77 932.38 1242.02C927.9 1247.52 923.41 1253.02 918.93 1258.53C886.65 1242.96 929.61 1227.51 919 1211.97L918.99 1211.96Z" fill="#29055D"/>
<path d="M988.75 703.11C962.46 835.43 937.09 967.95 909.35 1099.96C900 1144.45 884.67 1187.69 871.91 1231.46C871.43 1233.1 869.26 1234.24 867.87 1235.62C867.35 1234.21 866.83 1232.81 866.31 1231.4C867.14 1133.93 867.98 1036.45 868.82 938.97C870.09 889.27 871.37 839.57 872.64 789.87C907.96 762.78 943.28 735.69 978.61 708.61C981.03 706.76 983.45 704.92 985.87 703.07L987.31 702.89L988.74 703.11H988.75Z" fill="#2F0768"/>
<path d="M798.86 561.84C799.76 560.92 800.66 559.99 801.56 559.07C822.9 547.49 844.11 535.64 865.71 524.56C869.69 522.52 879.3 522.57 879.5 523.37C884.74 544.33 926.5 542.52 914.2 569.25C904.25 590.86 939.73 591.85 925.77 609.5C915.72 602.02 905.67 594.54 895.61 587.05C877.47 563.61 860.4 561.76 838.73 584.96C820.47 604.51 797.76 619.88 777.16 637.27C773.55 640.32 770.67 644.22 767.45 647.73C772.15 648.12 776.86 648.52 781.56 648.91C809.34 651.3 837.12 653.56 864.88 656.17C871.27 656.77 880.98 652.43 881.74 663.76C881.99 667.47 878.05 674.12 874.94 674.86C867.35 676.67 857.28 679.58 853.3 669.11C848.9 657.54 839.37 658.54 836.19 665.39C828.49 682 793.13 655.73 801.11 686.85C805.15 702.62 823.24 681.69 829.59 685.15C855.83 699.48 881.52 676.93 909.84 689.37C933.5 699.77 966.25 699.21 987.84 672.26C991.2 668.07 1000.67 665.21 999.41 675.63C998.64 681.98 996.55 686.65 1003.78 688.06C1035.37 694.24 1024.29 718.22 1024.63 737.35C1024.65 738.71 1021.96 740.12 1020.53 741.5C1016.28 729.21 1006.17 725.22 994.65 723.22C995.43 721.39 995.69 718.8 997.07 717.86C1026.33 697.95 990.17 703.87 988.57 696.22C912.85 696.57 837.13 696.83 761.42 697.49C756.33 697.53 751.28 700.54 746.2 702.17C743.1 709.36 740.77 717.1 736.3 723.3C735.34 724.63 722.39 723.22 729.39 713.14C732.2 709.1 735.99 705.73 738.73 701.66C748.32 687.37 730.93 686.55 726.84 679.1C725.03 675.8 719.79 674.37 716.11 672.09C718.07 677.65 721.4 683.14 721.71 688.79C722.46 702.64 722 716.58 721.5 730.47C721.43 732.45 718.38 734.33 716.72 736.26C715.48 733.49 713.22 730.74 713.17 727.96C712.76 703.02 708.12 682.69 675.62 685.52C671.11 685.91 661.38 677.21 661.86 676.1C665.87 666.86 671.25 675.21 676.44 675.7C680 676.03 686.37 673.18 687.31 670.35C694.68 648.29 709.17 635.93 732.29 632.44C737.61 631.64 742.74 626.81 747.01 622.82C750.03 620 751.44 615.46 753.57 611.69C757.43 615.44 761.66 618.9 765.02 623.06C766.98 625.5 767.55 629.06 768.74 632.12C771.17 629.41 776.22 625.24 775.65 624.22C758.82 594.08 796.63 584.55 798.88 561.86L798.86 561.84ZM894.97 580.37C899.87 574.36 903.34 570.91 905.48 566.77C905.9 565.97 901.14 562.49 898.77 560.24C896.13 563.04 892.37 565.45 891.21 568.77C890.37 571.16 892.99 574.76 894.97 580.37Z" fill="#000026"/>
<path d="M1338.09 709.09C1278.31 745.81 1228.6 794.02 1182.19 845.97C1167.98 839.58 1142.07 895.53 1137.7 837.68C1136.99 828.29 1138.28 818.74 1138.65 809.27L1138.61 809.23C1155.64 795.76 1167.84 779.74 1166.6 756.56C1169.67 752.97 1172.74 749.38 1175.81 745.79C1175.81 745.79 1177.19 745.85 1177.2 745.85C1185.44 743.22 1189.32 737.7 1188.36 728.99L1188.38 729.27C1233.2 684.81 1287.75 712.53 1338.1 709.1L1338.09 709.09Z" fill="#742ABB"/>
<path d="M1049.55 642.61C1053.21 637.15 1056.87 631.68 1060.54 626.21C1064.27 623.83 1067.99 621.46 1071.72 619.08C1086.64 616.2 1086.66 602.05 1092.16 592.04C1095.51 585.27 1098.87 578.49 1102.22 571.72C1101.81 570.81 1102.04 570.1 1102.91 569.6C1106.05 565.83 1109.2 562.06 1112.34 558.3L1112.28 557.2C1112.28 557.2 1113.22 556.62 1113.22 556.61C1117.21 551.93 1121.19 547.26 1125.18 542.58L1125.11 542.61C1126.27 542.91 1127.42 543.21 1128.58 543.51C1128.84 544.46 1129.05 545.42 1129.22 546.38C1137.88 558.61 1146.54 570.83 1155.2 583.06C1166.21 603.95 1177.22 624.84 1188.23 645.73C1142.01 644.69 1095.78 643.64 1049.56 642.6L1049.55 642.61Z" fill="#772FB9"/>
<path d="M1188.22 645.73C1177.21 624.84 1166.2 603.95 1155.19 583.06C1162.57 572.89 1146.17 544.27 1171.73 551.26C1205.2 560.42 1222.29 568.25 1188.7 529.55C1192.16 530.57 1195.62 531.6 1199.08 532.62C1207.86 540.39 1216.64 548.15 1225.43 555.92C1224.74 563.38 1227.99 566.84 1235.57 565.93C1235.57 565.93 1235.43 565.9 1235.43 565.91C1260.61 616.72 1245.45 643.66 1188.23 645.74L1188.22 645.73Z" fill="#4D168D"/>
<path d="M798.45 1232.04C763.11 1186.72 727.76 1141.41 692.42 1096.09C687.97 1090.39 683.53 1084.7 679.08 1079.01L679.13 1079.11C679.21 1076.82 679.29 1074.53 679.37 1072.24C696.88 1091.81 714.67 1111.13 731.75 1131.08C738.74 1139.24 736.56 1157.32 755.44 1151.83C747.55 1137.05 777.18 1126.2 759.84 1111.1C757.16 1108.77 750.33 1111.68 745.59 1111.01C743.73 1110.74 742.33 1107.27 740.72 1105.26C759.82 1094.14 737.27 1077.99 745.51 1065.56C746.85 1066.93 748.2 1068.29 749.54 1069.66C754.01 1073.79 758.48 1077.92 762.95 1082.05C764.84 1085.51 766.74 1088.97 768.63 1092.44C787.83 1138.84 807.03 1185.24 826.23 1231.64C828.41 1236.15 830.59 1240.65 832.77 1245.16V1245.18C826.1 1252.23 850.22 1264.66 828.6 1269.1C818.55 1256.76 808.51 1244.42 798.46 1232.08L798.45 1232.04Z" fill="#571B92"/>
<path d="M941.99 465.84C988.7 466.17 1035.41 466.51 1082.12 466.84C1081.02 467.84 1079.92 468.84 1078.81 469.83C1026.6 487.59 974.39 505.36 922.18 523.12C918.91 522.97 915.65 522.81 912.38 522.66C899.17 516.02 885.97 509.37 872.76 502.73C870.37 502.83 867.97 502.94 865.57 503.04C863.51 502.96 861.44 502.89 859.38 502.81C861.58 501.56 863.78 500.32 865.99 499.07C887.09 489.38 908.18 479.68 929.28 469.99C933.51 468.61 937.74 467.22 941.98 465.84H941.99Z" fill="#9C52DA"/>
<path d="M828.89 1098.97C819 1052.32 809.12 1005.68 799.23 959.03C800.32 959.03 801.4 959.03 802.49 959.04C802.52 960.14 802.55 961.25 802.57 962.35C812.68 995.38 814.39 1046.14 865.69 992.28C865.7 1026.76 867.11 1061.33 865.04 1095.68C864.2 1109.6 855.8 1123.07 850.84 1136.74C846.78 1126.59 843.18 1116.21 838.39 1106.42C836.8 1103.16 832.14 1101.41 828.88 1098.96L828.89 1098.97Z" fill="#6925A9"/>
<path d="M802.57 962.35C802.54 961.25 802.51 960.14 802.49 959.04C800.58 947.53 806.55 933.72 792.75 925.69C791.96 922.25 791.16 918.81 790.37 915.36C791.11 907.7 791.86 900.05 792.6 892.4C798.63 891.35 805.65 891.94 810.53 888.98C841.78 870.05 864.26 844.86 865.69 805.93C865.7 832.54 865.71 859.14 865.72 885.75C863.56 888.51 858.97 892.1 859.59 893.91C878.26 948.35 818.71 937.29 802.58 962.35H802.57Z" fill="#7A2EBB"/>
<path d="M543.26 835.74C570.57 836.67 552.01 805.55 568.97 798.2C571.13 797.26 568.83 786.04 568.59 779.58C575.51 785.86 582.54 792.02 589.31 798.46C592.85 801.83 595.94 805.69 599.23 809.33C601.39 813.98 600.79 821.51 609.59 819.22C615.17 827.93 620.75 836.65 626.33 845.36L626.75 845.64C627.72 848.83 628.69 852.03 629.66 855.22C629.56 856.5 629.47 857.77 629.37 859.05C624.98 854.63 620.59 850.21 616.19 845.79C614.24 841.39 612.3 836.98 610.35 832.58C609.41 833.22 608.47 833.85 607.53 834.49C610.38 838.29 613.23 842.08 616.09 845.88C604.68 869.13 614.12 892.35 616.18 915.59C609.55 908.88 602.92 902.18 596.28 895.47C578.61 875.56 560.93 855.66 543.26 835.75V835.74Z" fill="#CB99ED"/>
<path d="M1188.22 645.73C1245.44 643.66 1260.61 616.71 1235.42 565.9C1263.63 590.36 1292.41 614.21 1319.72 639.64C1329.11 648.39 1317.6 648.85 1312.52 648.87C1225.69 649.19 1138.86 649.14 1052.03 649.47C1042.33 649.51 1046.82 646.16 1049.55 642.6C1095.78 643.64 1142 644.69 1188.23 645.73H1188.22Z" fill="#45127A"/>
<path d="M1138.12 709.04C1137.09 710.11 1136.05 711.18 1135.02 712.26C1133.04 712.58 1131.06 712.89 1129.08 713.21C1122.99 711.27 1116.33 706.69 1110.9 707.85C1089.89 712.35 1065.5 700.57 1047.73 720.55C1060.8 728.05 1071.34 741.06 1088.65 739.27C1079.66 755.91 1070.66 772.55 1061.67 789.19C1059.71 792.7 1057.74 796.21 1055.78 799.72C1052.27 807.3 1048.76 814.89 1045.25 822.47C1041.09 815.57 1033.31 808.63 1033.4 801.79C1033.77 774.1 1036.57 746.44 1038.48 718.76C1039.96 713.36 1041.44 707.96 1042.91 702.56C1072.65 702.79 1102.4 703.03 1132.14 703.27C1134.13 705.19 1136.12 707.11 1138.12 709.03V709.04Z" fill="#752AB1"/>
<path d="M912.39 522.66C915.66 522.81 918.92 522.97 922.19 523.12C943.31 533.06 964.43 543 985.55 552.94C997.84 559.59 1010.13 566.23 1022.41 572.88C1025.68 575.07 1028.96 577.26 1032.23 579.44C1018.37 599.65 1003.62 606.91 982.68 586.78C973.38 577.84 960.01 573.13 948.49 566.51C933.02 554.28 917.56 542.05 902.09 529.82C905.52 527.43 908.96 525.05 912.39 522.67V522.66Z" fill="#561792"/>
<path d="M828.89 1098.97C832.15 1101.41 836.8 1103.17 838.4 1106.43C843.19 1116.22 846.79 1126.6 850.85 1136.75C855.81 1123.08 864.22 1109.61 865.05 1095.69C867.11 1061.33 865.71 1026.77 865.7 992.29C865.74 974.56 865.78 956.82 865.82 939.09C866.83 939.07 867.83 939.03 868.83 938.98C867.99 1036.46 867.16 1133.93 866.32 1231.41C853.84 1187.26 841.36 1143.12 828.88 1098.98L828.89 1098.97Z" fill="#5D2299"/>
<path d="M1038.48 718.77C1036.58 746.44 1033.78 774.1 1033.4 801.8C1033.31 808.64 1041.09 815.58 1045.25 822.48C1036.29 843.53 1027.33 864.58 1018.37 885.62C1010.8 896.78 1003.23 907.95 995.66 919.11C997.79 908.01 999.91 896.91 1002.04 885.8C1014.19 830.12 1026.34 774.44 1038.48 718.76V718.77Z" fill="#6728A7"/>
<path d="M692.35 696.23C694.84 707.05 697.32 717.86 699.81 728.68C682.41 737.1 731.92 801.15 666.06 769.28C660.42 759.49 654.78 749.7 649.14 739.91C666.71 734.99 673.54 718.98 683.71 706.42C684.61 705.32 685.51 704.22 686.41 703.12C686.75 702.29 687.6 701.06 687.32 700.72C686.72 699.97 685.56 699.25 684.62 699.25C654.02 699.06 623.41 698.95 592.81 698.82C594 697.69 595.19 696.55 596.38 695.42C628.37 695.69 660.36 695.97 692.35 696.24V696.23Z" fill="#8136BC"/>
<path d="M666.06 769.28C731.92 801.16 682.4 737.1 699.81 728.68C704.2 748.68 708.59 768.69 712.97 788.7C713.97 793.32 714.98 797.95 715.98 802.57C716.38 803.44 716.5 804.34 716.33 805.29C717.36 809.94 718.39 814.58 719.42 819.23C719.86 820.04 719.97 820.9 719.73 821.8C702.15 829.52 741.4 857.73 706.28 859.12H706.09C692.74 829.17 679.39 799.23 666.05 769.28H666.06Z" fill="#7430AE"/>
<path d="M666.06 769.28C679.41 799.22 692.76 829.16 706.1 859.1C675.77 830.14 668.1 784.42 632.4 759.44L612.99 735.8L613.03 735.87C610.81 732.47 608.59 729.07 606.37 725.67C605.17 721.61 603.97 717.56 602.77 713.5C602.54 712.87 602.68 712.33 603.19 711.9C618.51 721.24 633.83 730.57 649.15 739.91C654.79 749.7 660.43 759.49 666.06 769.28Z" fill="#521A8D"/>
<path d="M1018.37 885.62C1027.33 864.57 1036.29 843.52 1045.25 822.48C1048.76 814.9 1052.27 807.31 1055.78 799.73C1057.74 796.22 1059.71 792.71 1061.67 789.2C1070.66 772.56 1079.66 755.92 1088.65 739.28C1102.12 730.59 1115.6 721.9 1129.07 713.22C1131.05 712.9 1133.03 712.59 1135.01 712.27C1132.88 715.73 1130.75 719.19 1128.62 722.65C1112.7 743.21 1084.34 753.43 1078.81 782.61C1070.61 798.83 1063.25 815.54 1054.01 831.15C1042.96 849.81 1030.32 867.51 1018.37 885.63V885.62Z" fill="#310465"/>
<path d="M958.9 646.2C956.73 646.2 954.56 646.2 952.39 646.21C927.91 645.1 903.44 644 878.96 642.89C875.72 642.81 872.48 642.74 869.24 642.66C883.74 629.21 896.74 615.07 892.33 592.85C905.24 600.56 918.14 608.26 931.05 615.97C932.63 617.08 934.2 618.18 935.78 619.29C934.16 628.56 940.63 628.4 946.72 628.67L946.53 628.37C950.65 634.31 954.77 640.26 958.89 646.2H958.9Z" fill="#CF9FEB"/>
<path d="M749.54 1069.63C748.2 1068.27 746.85 1066.9 745.51 1065.53C720.28 1035.53 695.05 1005.52 669.82 975.52C671.95 971.13 674.08 966.73 676.22 962.34C687.73 972.2 699.24 982.06 710.76 991.92C724.87 1016.54 738.97 1041.15 753.07 1065.76C751.89 1067.05 750.71 1068.34 749.54 1069.63Z" fill="#AC74DB"/>
<path d="M1018.37 885.62C1030.32 867.5 1042.97 849.79 1054.01 831.14C1063.25 815.54 1070.62 798.82 1078.81 782.6C1079.92 787.04 1081.03 791.49 1082.13 795.93C1052.14 848.02 1022.16 900.1 992.17 952.19C993.33 941.17 994.49 930.14 995.64 919.11C1003.21 907.95 1010.78 896.78 1018.35 885.62H1018.37Z" fill="#2A0A59"/>
<path d="M1058.98 982.41C1041.11 1003.39 1023.24 1024.37 1005.37 1045.35C1007.54 1035.24 1009.72 1025.12 1011.89 1015.01C1016.68 1006.3 1021.47 997.59 1026.26 988.88C1030.41 982.18 1034.56 975.48 1038.71 968.77L1038.58 968.92C1041.94 963.32 1045.31 957.73 1048.67 952.13L1048.59 952.27C1051.88 948.95 1055.16 945.64 1058.45 942.32C1059.7 942.36 1060.95 942.39 1062.19 942.43C1059.36 955.61 1044.2 967.8 1058.97 982.4L1058.98 982.41Z" fill="#6626A6"/>
<path d="M746.18 702.16C751.25 700.53 756.31 697.53 761.4 697.48C837.11 696.83 912.83 696.57 988.55 696.21C988.62 698.51 988.69 700.8 988.76 703.1L987.33 702.88L985.89 703.06C914.99 703.23 844.09 703.4 773.2 703.57C767.46 704.45 761.72 705.33 755.98 706.2C753.84 706.09 751.71 705.99 749.57 705.88C748.44 704.64 747.31 703.39 746.19 702.15L746.18 702.16Z" fill="#FAEAFE"/>
<path d="M869.25 642.67C872.49 642.75 875.73 642.82 878.97 642.9C878.96 644.09 878.95 645.27 878.94 646.46C846.48 647.28 814.02 648.1 781.56 648.92C776.86 648.53 772.16 648.13 767.45 647.74C770.67 644.23 773.55 640.33 777.16 637.28C797.76 619.89 820.47 604.52 838.73 584.97C860.41 561.76 877.48 563.61 895.61 587.06C894.46 587.93 893.3 588.79 892.15 589.66C887.85 587.37 883.55 585.07 879.26 582.78C874 574.07 869 571.53 859.91 579.8C846.08 592.38 830.36 602.87 816.16 615.08C807.34 622.66 799.83 631.78 791.73 640.21C803.06 641.05 814.4 641.88 825.73 642.72C840.24 642.72 854.75 642.7 869.25 642.7V642.67Z" fill="#E5E4F8"/>
<path d="M749.56 705.9C751.7 706.01 753.83 706.11 755.97 706.22C762.47 711.97 768.96 717.72 775.46 723.47C770.31 726.15 760.37 730.15 760.7 731.32C768.72 760.44 762.4 793.24 782.58 819.22C785.92 843.62 789.26 868.01 792.59 892.41C791.85 900.07 791.1 907.72 790.36 915.38C776.76 845.56 763.16 775.74 749.56 705.91V705.9Z" fill="#7B46B7"/>
<path d="M1347.97 683.62C1345.49 685.09 1341.29 689.5 1338.94 688.67C1317.46 681.12 1296.3 672.65 1275.05 664.45C1279.4 662.78 1284.26 658.91 1288.01 659.79C1308.64 664.63 1337.31 647.78 1347.98 683.62H1347.97Z" fill="#000026"/>
<path d="M632.4 759.44C668.11 784.42 675.78 830.14 706.1 859.1L706.29 859.11C709.44 865.81 712.6 872.51 715.76 879.2C710.26 876.97 704.76 874.74 699.26 872.51L699.28 872.54C696.89 868.14 694.49 863.73 692.1 859.33C685.69 850.37 679.28 841.4 672.86 832.44C670.67 829.07 668.48 825.7 666.29 822.34L666.32 822.38C657.48 807.83 648.65 793.29 639.82 778.74C637.54 774.45 635.25 770.16 632.97 765.86C632.78 763.72 632.59 761.58 632.4 759.43V759.44Z" fill="#451B7E"/>
<path d="M742.89 756.4C754.44 756.47 754.96 767.75 751.7 769.88C722.35 789.11 748.49 813.83 744.1 835.19C743.66 837.31 742.7 839.32 741.99 841.39C727.71 823.25 726.85 800.74 723.37 779.54C721.27 766.74 733.74 761.48 742.89 756.41V756.4Z" fill="#000026"/>
<path d="M715.76 879.21C712.6 872.51 709.45 865.81 706.29 859.12C741.41 857.72 702.16 829.52 719.74 821.8C727.42 855.31 735.1 888.82 742.78 922.33C733.77 907.96 724.76 893.59 715.75 879.22L715.76 879.21Z" fill="#602B98"/>
<path d="M1348.08 696.5C1347.09 698.67 1346.1 700.85 1345.11 703.02C1297.63 703.3 1250.15 703.58 1202.67 703.86C1202.46 702.42 1202.25 700.98 1202.05 699.54C1250.73 698.53 1299.41 697.51 1348.08 696.5Z" fill="#C29EEC"/>
<path d="M1082.14 795.93C1081.03 791.49 1079.92 787.04 1078.82 782.6C1084.36 753.42 1112.71 743.19 1128.63 722.64C1113.13 747.07 1097.64 771.5 1082.14 795.93Z" fill="#290A59"/>
<path d="M948.49 566.5C960.01 573.13 973.38 577.83 982.68 586.77C1003.61 606.9 1018.36 599.65 1032.23 579.43C1034.29 579.33 1036.35 579.23 1038.41 579.13C1036.29 582.56 1034.17 585.98 1032.04 589.4C986.04 647.94 976.34 574.1 948.48 566.49L948.49 566.5Z" fill="#46187C"/>
<path d="M715.76 879.21C724.77 893.58 733.78 907.95 742.79 922.32C744.41 931.25 746.03 940.17 747.66 949.1C742.62 942.48 736.99 936.23 732.67 929.17C721.23 910.47 710.37 891.43 699.27 872.52C704.77 874.75 710.27 876.98 715.77 879.21H715.76Z" fill="#3C146F"/>
<path d="M918.99 1211.96C929.6 1227.49 886.64 1242.95 918.92 1258.52C918.95 1259.65 918.97 1260.78 918.99 1261.91C905.66 1275.22 892.34 1288.54 879.01 1301.85C892.33 1271.88 905.66 1241.92 918.99 1211.95V1211.96Z" fill="#1A0949"/>
<path d="M724.81 942.47C717.26 955.44 738.22 968.28 720.87 977.09C719.48 977.79 705.98 961.93 704.54 952.75C703.52 946.3 713.41 938.12 718.43 930.72C720.68 934.85 722.92 938.99 724.82 942.47H724.81Z" fill="#000026"/>
<path d="M710.76 991.92C699.25 982.06 687.74 972.2 676.22 962.34C672.83 950.13 669.45 937.93 666.07 925.72H666.05C668.37 925.51 670.7 925.3 673.02 925.08C685.6 947.36 698.18 969.64 710.75 991.92H710.76Z" fill="#AF84D5"/>
<path d="M682.71 876.02C682.65 886.47 682.92 897.75 671.07 894.99C657.26 891.77 666.45 876.24 661.35 867.22C660.14 865.08 668 854.15 669.71 854.61C681.14 857.68 683.92 867.06 682.72 876.01L682.71 876.02Z" fill="#000026"/>
<path d="M1132.14 703.28C1102.4 703.04 1072.65 702.8 1042.91 702.57C1052.69 693.55 1136.36 693.62 1141.88 702.65C1138.63 702.86 1135.39 703.07 1132.14 703.28Z" fill="#CCA9ED"/>
<path d="M620.32 552.54C628.74 562.72 637.16 572.9 645.57 583.08C650.29 590.58 655.02 598.08 659.74 605.58C655.18 603.56 650.62 601.53 646.07 599.51C641.64 596.18 637.21 592.85 632.78 589.51C627.28 577.35 621.78 565.2 616.28 553.04C617.63 552.87 618.98 552.7 620.33 552.54H620.32Z" fill="#B081D6"/>
<path d="M692.35 696.23C660.36 695.96 628.37 695.68 596.38 695.41C628.58 670.64 660.31 701.85 692.35 696.23Z" fill="#000026"/>
<path d="M686.41 703.11C685.51 704.21 684.61 705.31 683.71 706.41C656.87 708.24 630.03 710.07 603.19 711.9C602.68 712.34 602.54 712.87 602.77 713.5C600.32 710.13 597.87 706.77 595.43 703.4C625.76 703.3 656.09 703.2 686.42 703.11H686.41Z" fill="#AF91CE"/>
<path d="M995.66 919.11C994.5 930.14 993.34 941.16 992.19 952.19C991.08 954.55 989.97 956.91 988.87 959.26C987.63 957.23 985.55 955.31 985.29 953.16C982.28 928.61 985.96 905.64 1002.05 885.81C999.92 896.91 997.8 908.01 995.67 919.12L995.66 919.11Z" fill="#11053A"/>
<path d="M626.32 845.36C626.98 839.27 628.62 833.09 628.06 827.12C627.34 819.39 624.86 811.83 623.14 804.19C628.51 808.94 638.06 813.46 638.35 818.51C638.91 828.15 647.95 844.42 626.75 845.65L626.33 845.37L626.32 845.36Z" fill="#000026"/>
<path d="M1062.2 942.44C1060.95 942.4 1059.7 942.37 1058.46 942.33C1058.67 940.12 1058.88 937.9 1059.1 935.69C1059.75 933.47 1060.4 931.25 1061.06 929.04C1064.71 923.43 1068.35 917.82 1072 912.22L1071.91 912.35C1075.26 906.51 1078.61 900.66 1081.96 894.82C1084.05 892.02 1086.14 889.22 1088.23 886.42C1089.54 886.22 1090.85 886.02 1092.16 885.82L1092.24 885.9C1091.6 909.73 1073.48 924.27 1062.2 942.45V942.44Z" fill="#5C2E9C"/>
<path d="M1011.89 1015.01C1009.72 1025.12 1007.54 1035.24 1005.37 1045.35C999.46 1054.13 997.52 1067.41 982.32 1065.62C992.18 1048.75 1002.03 1031.88 1011.89 1015.01Z" fill="#512490"/>
<path d="M620.32 552.54C618.97 552.71 617.62 552.88 616.27 553.04C608.28 558.44 600.3 563.84 592.32 569.24C597.33 558.14 602.35 547.05 607.36 535.95C611.68 541.48 616 547.01 620.32 552.54Z" fill="#BD99DC"/>
<path d="M912.39 522.66C908.96 525.04 905.52 527.43 902.09 529.81C892.32 520.78 882.54 511.76 872.77 502.73C885.98 509.37 899.18 516.02 912.39 522.66Z" fill="#642D9F"/>
<path d="M659.74 605.58C655.02 598.08 650.29 590.58 645.57 583.08C661.25 601.88 676.93 620.67 692.61 639.47C690.67 639.45 688.73 639.44 686.8 639.42C677.78 628.14 668.77 616.86 659.75 605.58H659.74Z" fill="#180745"/>
<path d="M1166.59 756.55C1167.84 779.73 1155.63 795.75 1138.6 809.22C1138.67 807.07 1138.74 804.92 1138.8 802.77C1142.04 797.07 1145.27 791.37 1148.51 785.67L1148.42 785.81C1151.78 780.22 1155.14 774.63 1158.5 769.05L1158.41 769.22C1161.04 765.77 1163.67 762.33 1166.29 758.88C1165.95 758.09 1166.05 757.31 1166.58 756.55H1166.59Z" fill="#5E32A3"/>
<path d="M686.22 897.75C691.42 906.54 695.87 910.62 695.44 914.08C694.61 920.71 691 926.99 688.54 933.42C686.07 927.41 682.66 921.58 681.47 915.32C680.76 911.57 683.5 907.17 686.23 897.74L686.22 897.75Z" fill="#000026"/>
<path d="M712.83 618.46C709.2 620.45 704.31 625.32 701.11 624.39C695.65 622.8 691.24 617.58 686.4 613.88C688.19 612.22 689.97 610.56 691.76 608.89C694.42 623.12 710.26 598.95 712.83 618.46Z" fill="#000026"/>
<path d="M629.36 859.05C629.46 857.78 629.55 856.5 629.65 855.23C634.04 860.92 638.43 866.61 642.82 872.3C643.9 873.48 644.98 874.65 646.06 875.83C651.75 886.7 657.44 897.57 663.13 908.45C659.68 906.38 656.23 904.31 652.78 902.24C644.97 887.85 637.17 873.46 629.36 859.06V859.05Z" fill="#C6A9E2"/>
<path d="M1199.09 532.63C1195.63 531.61 1192.17 530.58 1188.71 529.56C1181.87 515.6 1168.9 512.03 1155.17 509.73C1157.59 506.32 1160.01 502.9 1162.42 499.49C1174.64 510.54 1186.86 521.58 1199.08 532.63H1199.09Z" fill="#3C1E76"/>
<path d="M686.41 703.11C656.08 703.21 625.75 703.31 595.42 703.4C594.55 701.87 593.68 700.34 592.81 698.81C623.41 698.93 654.02 699.04 684.62 699.23C685.56 699.23 686.72 699.95 687.32 700.7C687.59 701.04 686.75 702.28 686.41 703.1V703.11Z" fill="#FCF0FE"/>
<path d="M639.83 778.74C648.66 793.29 657.5 807.83 666.33 822.38C652.66 810.77 643.85 796.21 639.83 778.74Z" fill="#14043F"/>
<path d="M1109.09 849.39C1109.61 848.19 1110.13 847 1110.64 845.8C1113.3 844.42 1115.96 843.03 1118.62 841.65C1113.43 858.54 1108.81 875.78 1092.24 885.9C1092.24 885.9 1092.16 885.82 1092.15 885.82C1095.41 877.97 1098.67 870.13 1101.93 862.28L1101.85 862.39C1104.26 858.06 1106.67 853.72 1109.08 849.39H1109.09Z" fill="#582F9B"/>
<path d="M1129.21 546.39C1129.04 545.42 1128.83 544.46 1128.57 543.51C1130.87 538.31 1133.17 533.11 1135.47 527.92L1135.01 526.98L1135.72 526.21C1140.4 523.02 1145.09 519.83 1149.77 516.64C1150.37 531.71 1143.24 541.44 1129.21 546.39Z" fill="#472482"/>
<path d="M892.14 589.64C893.29 588.77 894.45 587.91 895.6 587.04C905.65 594.52 915.7 602 925.76 609.49C927.52 611.65 929.29 613.81 931.05 615.97C918.14 608.26 905.24 600.56 892.33 592.85C892.31 591.77 892.24 590.7 892.13 589.63L892.14 589.64Z" fill="#E7DAF5"/>
<path d="M878.93 646.45C878.94 645.26 878.95 644.08 878.96 642.89C903.43 644 927.91 645.1 952.39 646.21C927.9 646.29 903.42 646.37 878.93 646.45Z" fill="#DDBFF7"/>
<path d="M792.75 925.69C806.55 933.72 800.58 947.53 802.49 959.04C801.4 959.04 800.32 959.04 799.23 959.03C797.07 947.92 794.91 936.81 792.75 925.69Z" fill="#7229B2"/>
<path d="M632.4 759.44C632.59 761.58 632.78 763.72 632.97 765.87C622.26 758.54 612.73 750.43 612.98 735.81C619.45 743.69 625.92 751.57 632.4 759.45V759.44Z" fill="#130441"/>
<path d="M1092.15 592.04C1086.66 602.05 1086.63 616.19 1071.72 619.08C1072.12 616.81 1072.52 614.54 1072.91 612.27C1073.58 611.7 1074.25 611.13 1074.92 610.56C1077.31 606.56 1079.7 602.57 1082.09 598.57C1081.78 597.45 1082.09 596.52 1082.99 595.79C1086.04 594.54 1089.1 593.28 1092.15 592.03V592.04Z" fill="#603A9D"/>
<path d="M1065.03 544.99C1065.2 546.54 1065.36 548.09 1065.53 549.63C1065.5 560.55 1059.99 566.09 1049.12 566.37C1054.42 559.24 1059.73 552.11 1065.03 544.99Z" fill="#11033C"/>
<path d="M1032.05 589.42C1034.17 586 1036.29 582.57 1038.42 579.15C1041.95 574.93 1045.48 570.71 1049.01 566.49C1047 576.83 1049.59 590.57 1032.05 589.43V589.42Z" fill="#11033C"/>
<path d="M652.77 902.22C656.22 904.29 659.67 906.36 663.12 908.43C665.13 912 667.15 915.57 669.16 919.15C668.12 921.35 667.08 923.54 666.05 925.74H666.07C657.95 919.99 651.26 913.43 652.77 902.23V902.22Z" fill="#AF84D5"/>
<path d="M1138.81 802.77C1138.74 804.92 1138.68 807.07 1138.61 809.22L1138.65 809.26C1133.22 815.96 1127.79 822.66 1122.35 829.35L1121.17 828.32C1127.01 818.6 1132.85 808.87 1138.7 799.15C1138.74 800.36 1138.77 801.56 1138.81 802.77Z" fill="#9780C8"/>
<path d="M1092.15 592.04C1089.1 593.29 1086.04 594.55 1082.99 595.8C1089.4 587.78 1095.8 579.75 1102.21 571.72C1098.86 578.49 1095.5 585.27 1092.15 592.04Z" fill="#A790D4"/>
<path d="M1101.94 862.28C1098.68 870.13 1095.42 877.97 1092.16 885.82C1090.85 886.02 1089.54 886.22 1088.23 886.42C1092.8 878.38 1097.37 870.33 1101.94 862.29V862.28Z" fill="#8870C0"/>
<path d="M958.9 646.2C954.78 640.26 950.66 634.32 946.54 628.37C952.69 634.3 958.83 640.23 964.98 646.16C962.95 646.17 960.93 646.18 958.9 646.2Z" fill="#DDBFF7"/>
<path d="M919 1261.92C918.98 1260.79 918.95 1259.66 918.93 1258.53C923.41 1253.03 927.9 1247.52 932.38 1242.02C927.92 1248.65 923.46 1255.29 919 1261.92Z" fill="#0B0336"/>
<path d="M1038.71 968.78C1034.56 975.48 1030.41 982.18 1026.26 988.89C1030.41 982.19 1034.56 975.49 1038.71 968.78Z" fill="#765EAE"/>
<path d="M1235.57 565.93C1227.99 566.85 1224.74 563.38 1225.43 555.92C1228.81 559.26 1232.19 562.59 1235.57 565.93Z" fill="#45127A"/>
<path d="M609.58 819.21C600.79 821.51 601.38 813.97 599.22 809.32C599.44 807.46 599.67 805.6 599.89 803.74C603.12 808.89 606.35 814.05 609.58 819.21Z" fill="#DCBFF1"/>
<path d="M749.54 1069.63C750.72 1068.34 751.89 1067.05 753.07 1065.76C756.36 1071.18 759.65 1076.6 762.94 1082.02C758.47 1077.89 754 1073.76 749.53 1069.63H749.54Z" fill="#5D1B9C"/>
<path d="M1059.1 935.69C1058.89 937.9 1058.68 940.12 1058.46 942.33C1055.17 945.65 1051.88 948.96 1048.59 952.28C1052.09 946.75 1055.59 941.22 1059.09 935.69H1059.1Z" fill="#7E62B4"/>
<path d="M1125.17 542.59C1121.18 547.26 1117.2 551.93 1113.21 556.62C1117.2 551.95 1121.18 547.27 1125.17 542.59Z" fill="#BDA8E2"/>
<path d="M1138.81 802.77C1138.77 801.56 1138.74 800.36 1138.7 799.15C1141.97 794.66 1145.25 790.16 1148.52 785.67C1145.28 791.37 1142.05 797.07 1138.81 802.77Z" fill="#9F84CF"/>
<path d="M1118.62 841.65C1115.96 843.03 1113.3 844.42 1110.64 845.8C1114.15 839.98 1117.66 834.16 1121.17 828.33C1121.17 828.33 1122.35 829.36 1122.34 829.36C1121.1 833.45 1119.86 837.55 1118.62 841.65Z" fill="#9683C7"/>
<path d="M1071.99 912.21C1068.35 917.82 1064.7 923.42 1061.05 929.03C1064.69 923.42 1068.34 917.81 1071.99 912.21Z" fill="#7B62B2"/>
<path d="M1158.51 769.05C1155.15 774.64 1151.79 780.23 1148.43 785.81C1151.79 780.22 1155.15 774.63 1158.51 769.05Z" fill="#9F84CF"/>
<path d="M1135.48 527.92C1133.18 533.12 1130.88 538.31 1128.58 543.51C1127.42 543.22 1126.26 542.92 1125.11 542.62C1128.57 537.72 1132.03 532.82 1135.49 527.92H1135.48Z" fill="#C7B7E5"/>
<path d="M1185.94 722.81C1188.97 718.14 1192 713.47 1195.04 708.8C1195.23 710.48 1195.43 712.16 1195.62 713.83C1193.65 716.84 1191.69 719.86 1189.72 722.88C1188.46 722.86 1187.2 722.83 1185.94 722.81Z" fill="#9F8CC7"/>
<path d="M1177.18 745.84L1175.8 745.78C1177.84 740.24 1179.88 734.7 1181.92 729.16C1182.05 730.71 1182.17 732.26 1182.3 733.81C1180.59 737.82 1178.89 741.83 1177.18 745.84Z" fill="#A490D1"/>
<path d="M946.73 628.67C940.64 628.39 934.17 628.56 935.79 619.29C939.44 622.42 943.08 625.54 946.73 628.67Z" fill="#E6CCFA"/>
<path d="M1072.91 612.27C1072.51 614.54 1072.12 616.81 1071.72 619.08C1067.99 621.46 1064.27 623.83 1060.54 626.21C1064.66 621.57 1068.79 616.92 1072.91 612.27Z" fill="#9D85C8"/>
<path d="M1112.33 558.3C1109.19 562.07 1106.04 565.83 1102.9 569.6C1106.04 565.84 1109.19 562.07 1112.33 558.3Z" fill="#A99AD6"/>
<path d="M666.3 822.34C668.49 825.71 670.68 829.08 672.87 832.44C670.68 829.07 668.49 825.7 666.3 822.34Z" fill="#14043F"/>
<path d="M1195.61 713.84C1195.42 712.16 1195.22 710.48 1195.03 708.8C1197.37 705.71 1199.71 702.63 1202.05 699.54C1202.26 700.98 1202.47 702.42 1202.67 703.86C1200.32 707.19 1197.96 710.51 1195.61 713.84Z" fill="#B6A1DD"/>
<path d="M719.43 819.22C718.4 814.58 717.37 809.93 716.34 805.28C717.37 809.92 718.4 814.57 719.43 819.22Z" fill="#602B98"/>
<path d="M715.98 802.57C714.98 797.95 713.97 793.33 712.97 788.7C713.97 793.32 714.98 797.95 715.98 802.57Z" fill="#602B98"/>
<path d="M1182.3 733.81C1182.17 732.26 1182.05 730.71 1181.92 729.16C1183.26 727.04 1184.6 724.93 1185.93 722.81C1187.19 722.84 1188.45 722.86 1189.7 722.88C1189.25 725 1188.81 727.13 1188.36 729.26L1188.34 728.98C1186.32 730.59 1184.31 732.2 1182.29 733.81H1182.3Z" fill="#BAA3EB"/>
<path d="M666.05 925.74C667.09 923.54 668.13 921.35 669.16 919.15C670.45 921.13 671.73 923.11 673.02 925.09C670.7 925.31 668.37 925.52 666.05 925.74Z" fill="#BE89E2"/>
<path d="M646.06 875.82C644.98 874.64 643.9 873.47 642.82 872.29C644.2 871.72 645.58 871.15 646.97 870.58C646.67 872.33 646.36 874.07 646.06 875.82Z" fill="#000026"/>
<path d="M1166.3 758.88C1163.67 762.33 1161.04 765.77 1158.42 769.22C1161.05 765.77 1163.68 762.33 1166.3 758.88Z" fill="#B19BE5"/>
<path d="M1132.14 703.28C1135.39 703.07 1138.64 702.86 1141.88 702.65C1140.62 704.78 1139.37 706.91 1138.12 709.04C1136.13 707.12 1134.13 705.2 1132.14 703.28Z" fill="#290A59"/>
<path d="M1082.09 598.58C1079.7 602.57 1077.31 606.57 1074.92 610.57C1077.31 606.58 1079.7 602.58 1082.09 598.58Z" fill="#AB96DE"/>
<path d="M592.32 569.25C600.3 563.85 608.29 558.45 616.27 553.05C621.77 565.21 627.27 577.36 632.77 589.52C612.99 597.78 597.68 617.54 572.85 612.79C573.55 599.13 594.28 593.23 586.91 576.45C588.71 574.05 590.51 571.65 592.31 569.25H592.32Z" fill="#BA80E5"/>
<path d="M586.91 576.44C594.28 593.22 573.55 599.12 572.85 612.78C564.36 619.63 556.84 626.96 559.62 639.41C559.63 640.49 559.66 641.57 559.69 642.65C556.29 643.87 552.89 645.09 549.5 646.3C547.36 646.28 545.22 646.26 543.09 646.24C557.7 622.97 572.31 599.7 586.91 576.43V576.44Z" fill="#AD87D7"/>
<path d="M543.26 835.74C560.93 855.65 578.61 875.55 596.28 895.46C590.66 898.04 588.77 901.73 594.23 906.05C630.05 934.41 621 992.24 665.59 1015.35C667.51 1016.35 665.93 1028.74 662.78 1033.85C657.63 1042.19 655.67 1032.24 652.32 1030.26C625.49 1014.39 622.52 975.03 588.9 965.83C587.93 964.78 586.96 963.74 585.99 962.69C581.36 957.15 576.73 951.61 572.1 946.07C571.1 945.05 570.11 944.03 569.11 943.01C565.63 938.49 562.16 933.98 558.68 929.47C557.77 928.37 556.87 927.27 555.96 926.17C548.18 916.1 540.4 906.03 532.62 895.97C532.62 895.97 532.75 895.97 532.75 895.96C521.02 869.83 505.06 847.23 479.68 832.51L479.78 832.29C468.81 794.15 433.8 772.81 415.12 740C411.13 732.99 405.34 727.33 419.01 726.04C420.38 727.18 421.74 728.31 423.11 729.45C436.24 746.75 452.35 759.87 473.76 765.55C482.24 772.7 490.72 779.86 499.19 787.01C505.82 794.49 512.46 801.98 519.09 809.46C523.55 813.98 528.02 818.51 532.48 823.03L532.35 822.82C534.79 825.97 537.24 829.12 539.68 832.27C540.88 833.43 542.07 834.59 543.27 835.75L543.26 835.74Z" fill="#641FA5"/>
<path d="M652.77 902.22C651.26 913.42 657.95 919.98 666.07 925.73C669.45 937.94 672.84 950.14 676.22 962.35C674.09 966.74 671.96 971.14 669.83 975.53C651.95 955.55 634.06 935.57 616.18 915.58C614.12 892.35 604.68 869.12 616.09 845.87L616.19 845.78C620.58 850.2 624.97 854.62 629.37 859.04C637.17 873.43 644.98 887.82 652.78 902.22H652.77Z" fill="#BE89E2"/>
<path d="M679.37 1072.23C679.29 1074.52 679.21 1076.81 679.13 1079.1C666.09 1064.45 653.05 1049.8 640.01 1035.14C639.75 1033.08 639.48 1031.03 639.21 1028.97C652.59 1043.39 665.98 1057.81 679.36 1072.23H679.37Z" fill="#4C2188"/>
<path d="M637.64 950.31C634.74 951.26 633.43 952.14 632.25 951.98C630.83 951.79 629.53 950.72 628.18 950.03C629.02 949.03 630.04 947.07 630.65 947.19C632.56 947.57 634.32 948.74 637.65 950.31H637.64Z" fill="#641FA5"/>
<path d="M775.91 466.44C781.46 466.51 787 466.57 792.55 466.63C807.24 479.95 802.35 494.73 795.75 509.64C791.28 509.71 786.81 509.78 782.35 509.85L782.44 509.95C776.31 502.39 769 497.87 758.81 500.73C754.52 499.31 750.24 497.9 745.95 496.48C745.88 493.92 746.89 490.31 745.57 488.97C739 482.25 720.31 491.64 723.47 475.67C724.29 471.52 746.31 471.63 758.57 469.67C764.37 468.74 770.13 467.53 775.9 466.45L775.91 466.44Z" fill="#BC86E8"/>
<path d="M795.74 509.65C802.34 494.74 807.23 479.96 792.54 466.64C794.68 466.67 796.81 466.69 798.95 466.72C803.47 468.85 807.99 470.98 812.52 473.11C816.93 475.31 821.35 477.52 825.76 479.72C839.17 486.17 852.59 492.62 866 499.08C863.8 500.33 861.59 501.57 859.39 502.82C843.42 510.37 827.46 517.93 811.48 525.49C807.42 522.46 803.35 519.42 799.29 516.39C798.1 514.15 796.92 511.9 795.73 509.66L795.74 509.65Z" fill="#B475E2"/>
<path d="M775.91 466.44C770.13 467.52 764.38 468.73 758.58 469.66C746.32 471.62 724.3 471.51 723.48 475.66C720.32 491.63 739 482.25 745.58 488.96C746.89 490.3 745.89 493.91 745.96 496.47C719.2 487.56 692.44 478.66 665.68 469.75C702.43 468.65 739.17 467.54 775.92 466.44H775.91Z" fill="#BD9ADD"/>
<path d="M758.8 500.73C768.99 497.87 776.3 502.39 782.43 509.95C774.55 506.88 766.68 503.8 758.8 500.73Z" fill="#BD9ADD"/>
<path d="M779.2 542.84C778.3 556.12 768.28 551.99 760.71 552.52C766.87 549.29 773.04 546.07 779.2 542.84Z" fill="#5D3590"/>
<path d="M795.74 509.65C796.92 511.89 798.11 514.14 799.3 516.38C793.65 514.21 787.99 512.03 782.34 509.86C786.81 509.79 791.28 509.72 795.74 509.66V509.65Z" fill="#BD9ADD"/>
<path d="M499.18 787C490.7 779.85 482.22 772.69 473.75 765.54C456.87 753.51 439.98 741.48 423.1 729.44C421.73 728.3 420.37 727.17 419 726.03C409.15 718.48 399.3 710.93 389.45 703.38C396.24 703.35 403.03 703.32 409.81 703.29C413.3 712.54 420.23 707.83 426.47 707.87C462.03 708.05 497.58 708.75 533.13 709.28L533.08 709.17C531.24 718.38 534.14 725.28 542.91 729.31C540.42 757.7 497.22 755.24 499.18 787.01V787Z" fill="#D8AFF5"/>
<path d="M542.91 729.3C534.15 725.26 531.24 718.37 533.08 709.16C537.58 714.64 542.07 720.12 546.57 725.6C546.5 726.79 546.43 727.99 546.36 729.18C545.21 729.22 544.06 729.26 542.91 729.3Z" fill="#CAB7D9"/>
<path d="M532.47 823.03C528.01 818.51 523.54 813.98 519.08 809.46C528.9 808.7 533.68 812.91 532.47 823.03Z" fill="#CB99ED"/>
<path d="M539.67 832.26C537.23 829.11 534.79 825.96 532.34 822.81C534.78 825.96 537.23 829.11 539.67 832.26Z" fill="#CB99ED"/>
<path d="M828.59 1269.06C850.21 1264.61 826.09 1252.19 832.76 1245.14C836.43 1252.46 840.56 1259.59 843.68 1267.14C849.08 1280.22 853.85 1293.56 858.88 1306.79L828.59 1269.06Z" fill="#3F2070"/>
<path d="M832.76 1245.12C830.58 1240.62 828.4 1236.11 826.22 1231.6C828.4 1236.1 830.58 1240.61 832.76 1245.12Z" fill="#3F2070"/>
<path d="M479.67 832.51C505.04 847.23 521 869.83 532.74 895.96C515.05 874.81 497.36 853.66 479.67 832.51Z" fill="#542590"/>
<path d="M572.09 946.08C576.72 951.62 581.35 957.16 585.98 962.7C584.94 962.55 583.9 962.42 582.86 962.31C579.27 956.9 575.68 951.49 572.08 946.08H572.09Z" fill="#492187"/>
<path d="M985.55 552.94C964.43 543 943.31 533.06 922.19 523.12C974.4 505.36 1026.61 487.59 1078.82 469.83C1077.56 482.2 1113.09 457.54 1095.47 486.37C1065.7 519.9 1032.4 547.61 985.55 552.93V552.94Z" fill="#8436C8"/>
<path d="M985.55 552.94C1032.4 547.62 1065.7 519.91 1095.47 486.38C1076.25 519.54 1055.19 551.16 1022.42 572.88C1010.13 566.23 997.85 559.59 985.56 552.94H985.55Z" fill="#7A31BB"/>
<path d="M812.52 473.11C808 470.98 803.48 468.85 798.95 466.72C842.4 467.81 885.84 468.91 929.29 470C908.19 479.7 887.1 489.39 866 499.08C852.59 492.63 839.17 486.17 825.76 479.72C821.35 477.52 816.93 475.31 812.52 473.11Z" fill="#D1A9F0"/>
<path d="M533.14 709.27C497.59 708.75 462.03 708.05 426.48 707.86C420.24 707.83 413.31 712.54 409.82 703.28C446.6 703.1 483.38 702.7 520.15 703.03C524.5 703.07 528.81 707.09 533.14 709.26V709.27Z" fill="#CAB7D9"/>
<path d="M559.69 642.66C559.66 641.58 559.63 640.5 559.62 639.42C592.31 634.52 636.39 654.28 646.07 599.51C650.63 601.53 655.19 603.56 659.74 605.58C668.76 616.86 677.77 628.14 686.79 639.42C684.73 656.11 673.02 644 666.15 646.34C630.66 645.11 595.18 643.88 559.69 642.65V642.66Z" fill="#A76BD9"/>
<path d="M559.69 642.66C595.18 643.89 630.66 645.12 666.15 646.35C627.27 646.34 588.38 646.33 549.5 646.31C552.9 645.09 556.3 643.87 559.69 642.66Z" fill="#BD92EB"/>
<path d="M1129.21 546.39C1143.24 541.44 1150.38 531.71 1149.77 516.64C1149.71 515.96 1149.67 515.28 1149.63 514.59C1151.47 512.97 1153.31 511.35 1155.16 509.73C1168.89 512.03 1181.87 515.6 1188.7 529.56C1222.29 568.27 1205.2 560.43 1171.73 551.27C1146.17 544.28 1162.56 572.89 1155.19 583.07C1146.53 570.85 1137.87 558.62 1129.21 546.4V546.39Z" fill="#531895"/>
<path d="M1118.62 841.65C1119.86 837.55 1121.1 833.46 1122.34 829.36C1127.78 822.66 1133.21 815.97 1138.64 809.27C1138.27 818.75 1136.98 828.29 1137.69 837.68C1142.06 895.53 1167.97 839.57 1182.18 845.97C1141.11 891.45 1100.04 936.93 1058.98 982.41C1044.21 967.81 1059.37 955.62 1062.2 942.44C1073.48 924.26 1091.6 909.72 1092.24 885.9C1108.8 875.79 1113.42 858.55 1118.62 841.65Z" fill="#6F26B4"/>
<path d="M1188.37 729.26C1188.82 727.13 1189.26 725.01 1189.71 722.88C1191.68 719.86 1193.64 716.84 1195.61 713.83C1197.96 710.51 1200.32 707.18 1202.67 703.86C1250.15 703.58 1297.63 703.3 1345.11 703.02C1342.77 705.04 1340.43 707.06 1338.09 709.08C1287.74 712.51 1233.19 684.79 1188.37 729.25V729.26Z" fill="#5C2C97"/>
<path d="M978.62 708.61C943.3 735.7 907.98 762.79 872.65 789.87C870.37 790.62 868.09 791.38 865.81 792.13C854.8 783.35 843.8 774.57 832.79 765.79C832.55 764.81 832.29 763.83 832.02 762.86C848.85 747.63 860.89 730.67 852.44 706.31C894.5 707.08 936.55 707.85 978.61 708.61H978.62Z" fill="#C995EF"/>
<path d="M978.62 708.61C936.56 707.84 894.51 707.07 852.45 706.3C826.03 705.39 799.61 704.49 773.19 703.58C844.09 703.41 914.99 703.24 985.88 703.07C983.46 704.92 981.04 706.76 978.62 708.61Z" fill="#B499CE"/>
<path d="M865.81 792.13C868.09 791.38 870.37 790.62 872.65 789.87C871.38 839.57 870.1 889.27 868.83 938.97C867.82 939.02 866.82 939.06 865.81 939.08C865.77 921.3 865.74 903.52 865.7 885.74C865.69 859.13 865.68 832.53 865.67 805.92C865.71 801.32 865.76 796.72 865.8 792.13H865.81Z" fill="#6925A9"/>
<path d="M894.97 580.37C892.99 574.77 890.37 571.17 891.21 568.77C892.37 565.45 896.12 563.04 898.77 560.24C901.14 562.49 905.9 565.97 905.48 566.77C903.34 570.91 899.87 574.35 894.97 580.37Z" fill="#020128"/>
<path d="M1182.3 733.81C1184.32 732.2 1186.34 730.59 1188.35 728.98C1189.32 737.7 1185.43 743.21 1177.19 745.84C1178.89 741.83 1180.59 737.82 1182.3 733.81Z" fill="#5C389D"/>
<path d="M865.71 885.75C865.74 903.53 865.78 921.31 865.82 939.09C865.78 956.82 865.74 974.56 865.7 992.29C814.39 1046.14 812.69 995.38 802.57 962.36C818.7 937.3 878.26 948.35 859.58 893.92C858.96 892.11 863.55 888.52 865.71 885.76V885.75Z" fill="#7229B2"/>
<path d="M865.81 792.13C865.77 796.73 865.72 801.33 865.68 805.92C864.25 844.86 841.77 870.04 810.52 888.97C805.64 891.93 798.62 891.34 792.59 892.39C789.25 867.99 785.91 843.6 782.58 819.2C820.79 821.59 820.4 787.67 832.8 765.78C843.81 774.56 854.81 783.34 865.82 792.12L865.81 792.13Z" fill="#8233C1"/>
<path d="M616.08 845.87C613.23 842.07 610.38 838.28 607.52 834.48C608.46 833.84 609.4 833.21 610.34 832.57C612.29 836.97 614.23 841.38 616.18 845.78L616.08 845.87Z" fill="#BE89E2"/>
<path d="M1129.07 713.21C1115.6 721.9 1102.12 730.59 1088.65 739.27C1071.34 741.06 1060.79 728.05 1047.72 720.55C1065.49 700.56 1089.88 712.34 1110.89 707.85C1116.32 706.69 1122.98 711.27 1129.07 713.21Z" fill="#7732C0"/>
<path d="M1061.67 789.2C1059.71 792.71 1057.74 796.22 1055.78 799.73C1057.75 796.22 1059.71 792.71 1061.67 789.2Z" fill="#6728A7"/>
<path d="M603.19 711.9C630.03 710.07 656.87 708.24 683.71 706.41C673.55 718.98 666.72 734.99 649.15 739.91C633.83 730.57 618.51 721.24 603.19 711.9Z" fill="#BC86ED"/>
<path d="M892.14 589.64C892.25 590.71 892.32 591.78 892.34 592.86C896.75 615.08 883.75 629.22 869.25 642.67C854.74 642.67 840.24 642.69 825.73 642.69C822.14 638.99 811.86 636.36 819.53 629.78C838.75 613.31 850.21 586.71 879.25 582.76C883.55 585.05 887.85 587.35 892.14 589.64Z" fill="#D7ADF4"/>
<path d="M773.19 703.58C799.61 704.49 826.03 705.39 852.45 706.3C860.9 730.66 848.86 747.62 832.03 762.85C813.18 749.72 794.32 736.59 775.47 723.45C768.97 717.7 762.47 711.95 755.98 706.2C761.72 705.32 767.46 704.44 773.2 703.57L773.19 703.58Z" fill="#CEA3F5"/>
<path d="M879.25 582.76C850.21 586.71 838.75 613.31 819.53 629.78C811.85 636.36 822.14 638.99 825.73 642.69C814.39 641.85 803.06 641.02 791.72 640.18C799.82 631.75 807.33 622.63 816.15 615.05C830.35 602.84 846.07 592.36 859.9 579.77C868.99 571.5 873.99 574.04 879.25 582.75V582.76Z" fill="#CFBCEC"/>
<path d="M775.47 723.46C794.33 736.59 813.18 749.72 832.03 762.86C832.3 763.84 832.55 764.81 832.79 765.79C820.39 787.68 820.79 821.59 782.57 819.21C762.39 793.23 768.72 760.44 760.69 731.31C760.37 730.14 770.3 726.14 775.45 723.46H775.47Z" fill="#8A3FC6"/>
<path d="M646.07 599.51C636.39 654.28 592.32 634.52 559.62 639.42C556.84 626.97 564.37 619.64 572.85 612.79C597.68 617.54 612.99 597.78 632.77 589.52C637.2 592.85 641.63 596.18 646.06 599.52L646.07 599.51Z" fill="#B373E1"/>
<path d="M423.1 729.45C439.98 741.48 456.87 753.51 473.75 765.55C452.34 759.88 436.23 746.75 423.1 729.45Z" fill="#632B9E"/>
</g>
</svg>
